<svg aria-hidden="true" style="position:absolute;width:0;height:0;overflow:hidden" xmlns="http://www.w3.org/2000/svg">
	<defs>
		<symbol id="icon-youtube" viewBox="0 0 34 32">
			<path fill="#2d415e" d="m15.008 19.2 4.79-3.2-4.79-3.2v6.4z" />
			<path fill="#2d415e"
				d="M.64 16c0-8.835 7.149-16 15.965-16s15.968 7.165 15.968 16-7.152 16-15.968 16C7.789 32 .64 24.835.64 16zm25.531 4.826c.411-1.565.411-4.81.411-4.81s.016-3.261-.411-4.826a2.511 2.511 0 0 0-1.742-1.757l-.018-.004C22.851 9 16.605 9 16.605 9s-6.245 0-7.808.411a2.562 2.562 0 0 0-1.752 1.761l-.004.018C6.63 12.755 6.63 16 6.63 16s0 3.261.411 4.81c.23.856.904 1.531 1.758 1.762 1.578.429 7.808.429 7.808.429s6.245 0 7.806-.411a2.512 2.512 0 0 0 1.756-1.746l.004-.018z" />
		</symbol>
		<symbol id="icon-right-chevron" viewBox="0 0 33 32">
			<path
				d="M.607 16c0-8.837 7.163-16 16-16s16 7.163 16 16-7.164 16-16 16c-8.837 0-16-7.163-16-16zm15.208 5.207 4.5-4.5a.997.997 0 0 0 0-1.414l-4.5-4.5a1 1 0 0 0-1.414 1.414L18.194 16l-3.793 3.793c-.631.631-.176 1.707.707 1.707a.997.997 0 0 0 .707-.293z" />
		</symbol>
		<symbol id="icon-phone" viewBox="0 0 32 32">
			<path
				d="M28.169 21.193h-.026c-1.841 0-3.613-.296-5.271-.843l.119.034c-.815-.271-1.809-.023-2.304.474l-3.267 2.415c-3.788-1.978-6.124-4.262-8.116-7.942l2.394-3.119a2.26 2.26 0 0 0 .571-2.344l.005.016c-.526-1.51-.829-3.25-.829-5.062v-.021.001a2.31 2.31 0 0 0-2.31-2.281h-5.38A2.311 2.311 0 0 0 1.445 4.8v.002c0 14.429 11.985 26.164 26.72 26.164h.02a2.31 2.31 0 0 0 2.31-2.282v-5.209a2.31 2.31 0 0 0-2.31-2.284h-.022.001z" />
		</symbol>
		<symbol id="icon-path-options" viewBox="0 0 59 32">
			<path stroke-linecap="round" stroke-width="5.333" d="M5.333 5.333 32 27.557 58.667 5.333" />
		</symbol>
		<symbol id="icon-path-nav" viewBox="0 0 45 32">
			<path fill="none" style="stroke:var(--color1, #2C2C2C)" stroke-linecap="round" stroke-width="6.4"
				d="m6.4 6.4 19.2 16 19.2-16" />
		</symbol>
		<symbol id="icon-options-loopa" viewBox="0 0 34 32">
			<path
				d="m23.652 20.623 9.295 9.297a.664.664 0 0 1 0 .942l-.943.941a.667.667 0 0 1-.942 0l-9.295-9.295a12.528 12.528 0 0 1-7.95 2.825h-.007c-6.992-.009-12.657-5.674-12.666-12.665v-.001C1.151 5.674 6.817.008 13.809-.001h.001c6.993.007 12.66 5.674 12.668 12.667v.001c0 3.012-1.062 5.779-2.825 7.957zM3.81 12.666c.006 5.52 4.479 9.994 9.998 10.001h.001c5.52-.006 9.994-4.479 10.001-9.998v-.001c-.006-5.521-4.48-9.995-10.001-10.001h-.001c-5.52.007-9.993 4.481-9.999 10v.001z" />
		</symbol>
		<symbol id="icon-mail" viewBox="0 0 43 32">
			<path
				d="M.85 2.343c6.044 3.605 16.007 10.656 19.125 12.633.375.251.836.402 1.332.405h.001c.462 0 .91-.135 1.33-.402 3.122-1.98 12.978-9.031 19.026-12.636.377-.224 1.18.085.875-.188-.704-.633-1.753-.996-2.88-.996H2.955c-1.127 0-2.176.363-2.88.996-.306.274.398-.036.775.188z" />
			<path
				d="M42.091 4.711a.928.928 0 0 0-.948.122l.002-.002C34.66 9.944 26.037 14.893 23.435 17.08c-1.461 1.227-2.795 1.227-4.26 0-2.777-2.325-12.42-8.075-17.717-12.249a.933.933 0 0 0-.952-.119l.006-.002a.83.83 0 0 0-.516.749v20.762c0 1.82 1.593 3.303 3.552 3.303h35.506c1.956 0 3.548-1.483 3.548-3.303V5.46a.827.827 0 0 0-.51-.745l-.005-.002z" />
		</symbol>
		<symbol id="icon-left-chevron" viewBox="0 0 33 32">
			<path opacity="1"
				d="M32.046 16c0-8.837-7.163-16-16-16s-16 7.163-16 16 7.164 16 16 16c8.837 0 16-7.163 16-16zm-15.207 5.207-4.5-4.5a.997.997 0 0 1 0-1.414l4.5-4.5a1 1 0 0 1 1.414 1.414L14.46 16l3.793 3.793c.631.631.176 1.707-.707 1.707a.997.997 0 0 1-.707-.293z" />
		</symbol>
		<symbol id="icon-double-oval" viewBox="0 0 32 32">
			<path fill="#2d415e" style="fill:var(--color1, #2d415e)"
				d="M11.852 21.926c0-5.555 4.519-10.074 10.074-10.074S32 16.371 32 21.926 27.481 32 21.926 32s-10.074-4.519-10.074-10.074zm4.74 0c0 2.94 2.393 5.333 5.333 5.333s5.333-2.393 5.333-5.333c0-2.941-2.392-5.333-5.333-5.333s-5.333 2.392-5.333 5.333z" />
			<path fill="#ffcc2a" style="fill:var(--color2, #ffcc2a)"
				d="M10.963 15.704a4.748 4.748 0 0 1-4.741-4.741H5.037a5.932 5.932 0 0 0 5.926 5.926v-1.185zm-4.741-4.741a4.747 4.747 0 0 1 4.741-4.74V5.038a5.932 5.932 0 0 0-5.926 5.926h1.185zm4.741-4.741a4.746 4.746 0 0 1 4.74 4.74h1.185a5.932 5.932 0 0 0-5.926-5.926v1.185zm4.741 4.741a4.747 4.747 0 0 1-4.74 4.741v1.185a5.932 5.932 0 0 0 5.926-5.926h-1.185zM10.963.296C5.081.296.296 5.08.296 10.963h1.185c0-5.228 4.254-9.481 9.482-9.481V.297zM.296 10.963c0 5.882 4.784 10.667 10.667 10.667v-1.185c-5.228 0-9.482-4.254-9.482-9.482H.296zm10.667 10.666c5.882 0 10.667-4.784 10.667-10.667h-1.185c0 5.228-4.254 9.482-9.481 9.482v1.185zM21.63 10.963C21.63 5.081 16.846.296 10.963.296v1.185c5.228 0 9.481 4.254 9.481 9.481h1.185z" />
		</symbol>
		<symbol id="icon-double-half-oval" viewBox="0 0 26 32">
			<path fill="#ffcc2a" style="fill:var(--color2, #ffcc2a)"
				d="M20.942 27.864a14.05 14.05 0 0 0 .003-19.968L.832 27.866c5.553 5.514 14.558 5.511 20.111-.003z" />
			<path fill="none" stroke="#2d415e" style="stroke:var(--color1, #2d415e)" stroke-linejoin="round"
				stroke-linecap="round" stroke-width="1.108"
				d="M20.942 20.799A14.05 14.05 0 0 0 20.945.831L.832 20.801c5.553 5.514 14.558 5.511 20.111-.002v0z" />
		</symbol>
		<symbol id="icon-decorate-square-dots" viewBox="0 0 27 32">
			<path fill="none" stroke="#ffcc2a" style="stroke:var(--color2, #ffcc2a)" stroke-width=".5"
				d="M12.556 6.924.566 18.914c-.088.088-.142.209-.142.344s.054.256.142.344l11.99 11.99a.485.485 0 0 0 .688 0l11.99-11.99c.088-.088.142-.209.142-.344s-.054-.256-.142-.344l-11.99-11.99a.485.485 0 0 0-.688 0z" />
			<path fill="#2d415e" style="fill:var(--color1, #2d415e)"
				d="M14.585.082a.28.28 0 1 0-.397.397.28.28 0 0 0 .397-.398zm3.109 3.11a.28.28 0 0 0-.398 0 .281.281 0 0 0 .398.397.279.279 0 0 0 0-.396zm3.11 3.109a.28.28 0 1 0-.397.397.28.28 0 0 0 .397-.398zm3.109 3.11a.281.281 0 1 0 0 .398.279.279 0 0 0 0-.396zm3.11 3.109a.281.281 0 0 0-.397.397.281.281 0 0 0 .397-.397zM11.806 2.861a.281.281 0 0 0-.398.397.281.281 0 0 0 .397-.397zm3.11 3.109a.281.281 0 0 0-.398.398.281.281 0 0 0 .398-.398zm3.109 3.11a.28.28 0 0 0-.483.195c0 .08.033.152.086.203a.28.28 0 0 0 .397-.397zm3.109 3.109a.28.28 0 1 0-.397.397.28.28 0 0 0 .397-.398zm3.11 3.11a.281.281 0 0 0-.397.397.281.281 0 0 0 .397-.397zM9.027 5.64a.28.28 0 1 0-.397.397.28.28 0 0 0 .397-.398zm3.11 3.109a.28.28 0 1 0-.397.397.281.281 0 0 0 .398-.398zm3.109 3.109a.281.281 0 0 0-.397.398.281.281 0 0 0 .397-.398zm3.11 3.11a.281.281 0 0 0-.397.397.281.281 0 0 0 .397-.397zm3.109 3.11a.281.281 0 0 0-.397.397.281.281 0 0 0 .397-.397zM6.248 8.418a.28.28 0 1 0-.397.397.28.28 0 0 0 .397-.398zm3.11 3.11a.28.28 0 1 0-.397.397.281.281 0 0 0 .397-.397zm3.109 3.109a.28.28 0 1 0-.396.396.28.28 0 0 0 .396-.396zm3.11 3.11a.28.28 0 1 0-.397.397.28.28 0 0 0 .397-.398zm3.11 3.109a.281.281 0 0 0-.397.397.281.281 0 0 0 .397-.397zM3.47 11.197a.28.28 0 1 0-.397.397.28.28 0 0 0 .397-.398zm3.11 3.11a.28.28 0 1 0-.397.397.281.281 0 0 0 .398-.398zm3.109 3.109a.28.28 0 1 0-.397.396.28.28 0 0 0 .396-.396zm3.109 3.11a.281.281 0 0 0-.397.397.281.281 0 0 0 .397-.397zm3.11 3.109a.281.281 0 0 0-.397.398.281.281 0 0 0 .397-.398zM.691 13.976a.281.281 0 0 0-.397.397.281.281 0 0 0 .397-.397zm3.11 3.109a.281.281 0 0 0-.398.398.281.281 0 0 0 .398-.398zm3.109 3.11a.28.28 0 1 0-.397.397.281.281 0 0 0 .397-.397zm3.11 3.109a.28.28 0 0 0-.396.396.28.28 0 0 0 .396-.396zm3.109 3.11a.281.281 0 0 0-.397.398.281.281 0 0 0 .397-.398z" />
		</symbol>
		<symbol id="icon-decorate-lines-2" viewBox="0 0 36 32">
			<path fill="none" stroke="#2d415e" style="stroke:var(--color1, #2d415e)" stroke-linejoin="round"
				stroke-linecap="round" stroke-width=".717"
				d="m4.661 31.546 1.464-5.95 6.095-.621 1.464-5.95 6.096-.621 1.464-5.95 6.096-.621 1.464-5.951L34.9 5.26" />
			<path fill="none" stroke="#ffcc2a" style="stroke:var(--color2, #ffcc2a)" stroke-linejoin="round"
				stroke-linecap="round" stroke-width=".717"
				d="m2.576 29.148 1.464-5.95 6.095-.621 1.464-5.95 6.096-.621 1.464-5.95 6.096-.621 1.464-5.951 6.096-.622" />
		</symbol>
		<symbol id="icon-decorate-lines" viewBox="0 0 54 32">
			<path fill="none" stroke="#2d415e" style="stroke:var(--color1, #2d415e)" stroke-linejoin="round"
				stroke-linecap="round" stroke-width=".938"
				d="m39.702 21.876 8.105-1.781 4.104 7.212M14.687 10.599l8.21-1.729 4.214 7.255 8.211-1.728M2.138 4.948l8.107-1.78" />
			<path fill="none" stroke="#ffcc2a" style="stroke:var(--color2, #ffcc2a)" stroke-linejoin="round"
				stroke-linecap="round" stroke-width=".938"
				d="m33.567 18.414 4.211 7.258 8.211-1.733 4.212 7.259M.574 9.169l8.264-1.705 4.266 7.278 8.264-1.705 4.267 7.279" />
		</symbol>
		<symbol xmlns="http://www.w3.org/2000/svg" viewBox="0 0 22 20" id="instagram">
			<path
				d="M12.7898 10C12.7898 11.1046 11.8962 12 10.7939 12C9.69164 12 8.7981 11.1046 8.7981 10C8.7981 8.89541 9.69164 8 10.7939 8C11.8962 8 12.7898 8.89541 12.7898 10Z">
			</path>
			<path fill-rule="evenodd" clip-rule="evenodd"
				d="M15.5386 6.40301C15.4411 6.13819 15.2855 5.8985 15.0834 5.70175C14.887 5.49917 14.648 5.34326 14.3836 5.24553C14.1691 5.16207 13.8469 5.06272 13.2535 5.03565C12.6116 5.00632 12.4192 5 10.7941 5C9.16891 5 8.97645 5.00616 8.3347 5.03549C7.74132 5.06272 7.41899 5.16207 7.2047 5.24553C6.94027 5.34326 6.70107 5.49917 6.50489 5.70175C6.30273 5.8985 6.14715 6.13803 6.04946 6.40301C5.96617 6.61791 5.86703 6.94091 5.84002 7.53553C5.81075 8.17861 5.80444 8.37147 5.80444 10.0001C5.80444 11.6285 5.81075 11.8214 5.84002 12.4646C5.86703 13.0593 5.96617 13.3821 6.04946 13.597C6.14715 13.862 6.30257 14.1015 6.50473 14.2983C6.70107 14.5008 6.94011 14.6567 7.20454 14.7545C7.41899 14.8381 7.74132 14.9374 8.3347 14.9645C8.97645 14.9938 9.16874 15 10.794 15C12.4193 15 12.6118 14.9938 13.2534 14.9645C13.8468 14.9374 14.1691 14.8381 14.3836 14.7545C14.9144 14.5493 15.3339 14.1289 15.5386 13.597C15.6219 13.3821 15.7211 13.0593 15.7482 12.4646C15.7775 11.8214 15.7836 11.6285 15.7836 10.0001C15.7836 8.37147 15.7775 8.17861 15.7482 7.53553C15.7212 6.94091 15.6221 6.61791 15.5386 6.40301ZM10.7941 13C9.14066 13 7.80028 11.657 7.80028 10C7.80028 8.34304 9.14066 7 10.7941 7C12.4474 7 13.7878 8.34304 13.7878 10C13.7878 11.657 12.4474 13 10.7941 13ZM12.7899 6.5C12.7899 6.77613 13.0133 7 13.2888 7C13.5644 7 13.7877 6.77613 13.7878 6.5C13.7878 6.22387 13.5644 6 13.2888 6C13.0133 6 12.7899 6.22387 12.7899 6.5Z">
			</path>
			<path fill-rule="evenodd" clip-rule="evenodd"
				d="M0.814941 10C0.814941 4.478 5.28363 0 10.7941 0C16.3047 0 20.7734 4.478 20.7734 10C20.7734 15.522 16.3047 20 10.7941 20C5.28363 20 0.814941 15.522 0.814941 10ZM16.2235 13.7613C16.3651 13.396 16.4621 12.9787 16.4898 12.3674C16.5178 11.7551 16.5244 11.5594 16.5244 10C16.5244 8.44055 16.5178 8.24493 16.49 7.6326C16.4621 7.02133 16.3653 6.604 16.2235 6.23871C16.0798 5.85556 15.8541 5.50858 15.5627 5.22171C15.2764 4.9295 14.93 4.70337 14.5476 4.55917C14.1831 4.41742 13.7666 4.32037 13.1566 4.2926C12.5456 4.26453 12.3504 4.25781 10.7941 4.25781C9.23794 4.25781 9.04273 4.26453 8.43167 4.29245C7.82167 4.32037 7.40521 4.41742 7.04068 4.55933C6.65833 4.70352 6.31191 4.9295 6.02579 5.22171C5.7342 5.50842 5.50853 5.85556 5.36463 6.23871C5.22302 6.604 5.12618 7.02133 5.09847 7.6326C5.07045 8.24493 5.0639 8.44055 5.0639 10C5.0639 11.5594 5.07045 11.7551 5.09862 12.3676C5.12633 12.9787 5.22333 13.3961 5.36494 13.7613C5.50883 14.1444 5.73435 14.4916 6.02579 14.7783C6.31206 15.0705 6.65833 15.2965 7.04083 15.4407C7.40521 15.5826 7.82183 15.6796 8.43167 15.7076C9.04288 15.7355 9.23794 15.7422 10.7943 15.7422C12.3505 15.7422 12.5457 15.7355 13.1568 15.7076C13.7666 15.6796 14.1832 15.5826 14.5476 15.4407C15.3173 15.1424 15.9258 14.5326 16.2235 13.7613Z">
			</path>
		</symbol>
		<symbol xmlns="http://www.w3.org/2000/svg" viewBox="0 0 21 20" id="linkedin">
			<path fill-rule="evenodd" clip-rule="evenodd"
				d="M0.937622 10C0.937622 4.478 5.40631 0 10.9168 0C16.4273 0 20.896 4.478 20.896 10C20.896 15.522 16.4273 20 10.9168 20C5.40631 20 0.937622 15.522 0.937622 10ZM5.5866 15.1172H8.01699V7.79007H5.5866V15.1172ZM6.80187 6.78955H6.78603C5.97047 6.78955 5.443 6.22696 5.443 5.52383C5.443 4.80484 5.98661 4.25781 6.81801 4.25781C7.64941 4.25781 8.16103 4.80484 8.17687 5.52383C8.17687 6.22696 7.64941 6.78955 6.80187 6.78955ZM14.3504 15.1172H16.7805V10.9158C16.7805 8.66531 15.5815 7.6181 13.9825 7.6181C12.6931 7.6181 12.1152 8.32825 11.7922 8.82751V7.79007H9.36199C9.39382 8.47748 9.36199 15.1172 9.36199 15.1172H11.7922V11.0254C11.7922 10.8064 11.8079 10.5876 11.8722 10.4311C12.0479 9.99359 12.4478 9.54041 13.1191 9.54041C13.9985 9.54041 14.3504 10.2122 14.3504 11.1974V15.1172Z">
			</path>
		</symbol>
		<symbol xmlns="http://www.w3.org/2000/svg" viewBox="0 0 22 21" id="facebook">
			<path
				d="M12.4706 19.9521C12.3927 19.9869 12.3144 20.0189 12.2358 20.0482C12.3144 20.0189 12.3927 19.9869 12.4706 19.9521Z">
			</path>
			<path
				d="M12.4706 19.9734C12.3924 19.9922 12.3141 20.0094 12.2358 20.027C12.3141 20.0094 12.3924 19.9922 12.4706 19.9734Z">
			</path>
			<path
				d="M12.4706 19.9631C12.3928 19.9912 12.3144 20.0162 12.2358 20.0373C12.3144 20.0162 12.3928 19.9912 12.4706 19.9631Z">
			</path>
			<path
				d="M12.4706 19.9777C12.3926 19.9938 12.3141 20.0086 12.2358 20.0227C12.3141 20.0086 12.3926 19.9938 12.4706 19.9777Z">
			</path>
			<path
				d="M13.4032 19.9719C13.3687 19.991 13.334 20.0102 13.2993 20.0285C13.334 20.0102 13.3687 19.991 13.4032 19.9719Z">
			</path>
			<path
				d="M13.4013 18.9699C13.3679 18.9906 13.3346 19.0102 13.3013 19.0305C13.3346 19.0102 13.3679 18.9906 13.4013 18.9699Z">
			</path>
			<path
				d="M13.4013 19.9693C13.368 19.99 13.3347 20.0111 13.3013 20.0311C13.3347 20.0111 13.368 19.9904 13.4013 19.9693Z">
			</path>
			<path
				d="M13.4013 19.9719C13.3681 19.9914 13.3347 20.0098 13.3013 20.0285C13.3347 20.0098 13.3681 19.9914 13.4013 19.9719Z">
			</path>
			<path
				d="M11.4728 19.985C11.3946 19.9963 11.3165 20.0064 11.238 20.0154C11.3165 20.0064 11.3946 19.9963 11.4728 19.985Z">
			</path>
			<path
				d="M21.3346 10C21.3346 4.478 16.8659 0 11.3554 0C5.84491 0 1.37622 4.478 1.37622 10C1.37622 15.522 5.84491 20 11.3554 20C11.4141 20 11.4724 19.9988 11.5308 19.9977V12.2131H9.38687V9.70932H11.5308V7.86682C11.5308 5.72998 12.8326 4.56696 14.7348 4.56696C15.6456 4.56696 16.4286 4.63501 16.6569 4.66537V6.89865H15.3452C14.3104 6.89865 14.11 7.39151 14.11 8.11462V9.70932H16.5844L16.2619 12.2131H14.11V19.6136C18.2811 18.4154 21.3346 14.5645 21.3346 10Z">
			</path>
			<path
				d="M11.4728 19.9803C11.3949 19.9975 11.3166 20.0111 11.238 20.0201C11.3166 20.0111 11.3949 19.9975 11.4728 19.9803Z">
			</path>
			<path
				d="M11.4728 19.9949C11.3947 19.9996 11.3164 20.0031 11.238 20.0055C11.3164 20.0031 11.3947 19.9996 11.4728 19.9949Z">
			</path>
		</symbol>
		<symbol xmlns="http://www.w3.org/2000/svg" viewBox="0 0 21 20" id="youtube">
			<path d="M9.38049 12L12.3743 10L9.38049 8L9.38049 12Z"></path>
			<path fill-rule="evenodd" clip-rule="evenodd"
				d="M0.39917 10C0.39917 4.478 4.86785 0 10.3784 0C15.8889 0 20.3576 4.478 20.3576 10C20.3576 15.522 15.8889 20 10.3784 20C4.86785 20 0.39917 15.522 0.39917 10ZM16.3571 13.0162C16.6139 12.0383 16.6139 10.0102 16.6139 10.0102C16.6139 10.0102 16.6242 7.97211 16.3571 6.99417C16.2132 6.45889 15.7921 6.03668 15.2579 5.89264C14.282 5.625 10.3784 5.625 10.3784 5.625C10.3784 5.625 6.47477 5.625 5.49886 5.88242C4.9749 6.02646 4.54337 6.45889 4.39962 6.99417C4.14274 7.97211 4.14274 10 4.14274 10C4.14274 10 4.14274 12.0383 4.39962 13.0058C4.54352 13.5411 4.9647 13.9633 5.49886 14.1074C6.48497 14.375 10.3784 14.375 10.3784 14.375C10.3784 14.375 14.282 14.375 15.2579 14.1176C15.7921 13.9735 16.2132 13.5515 16.3571 13.0162Z">
			</path>
		</symbol>
		<symbol fill="none" xmlns="http://www.w3.org/2000/svg" viewBox="0 0 57 54" id="services1">
			<rect x="3" y="26.8701" width="38" height="38" rx="5" transform="rotate(-45 3 26.8701)" fill="#FFCD00"></rect>
			<path fill-rule="evenodd" clip-rule="evenodd"
				d="M20.167 17.0041C20.167 22.5234 15.6885 27 10.167 27C4.64547 27 0.166992 22.5151 0.166992 16.9959C0.166992 11.4766 4.64547 7 10.167 7C15.6885 7 20.167 11.4849 20.167 17.0041ZM6.95507 19.9665C6.85573 20.2975 6.76467 20.6202 6.67361 20.9512C6.55772 21.3897 6.59911 21.4973 7.00474 21.6876C7.54282 21.9524 8.11401 22.0848 8.70176 22.1758C9.16534 22.2503 9.17361 22.2751 9.18189 22.7468C9.19017 22.9619 9.19017 23.1771 9.19017 23.3922C9.19017 23.6653 9.32262 23.8225 9.60408 23.8308C9.91865 23.8391 10.2415 23.8391 10.5561 23.8308C10.821 23.8225 10.9534 23.6818 10.9534 23.417C10.9534 23.3174 10.9553 23.2188 10.9571 23.1204C10.9608 22.9246 10.9644 22.7299 10.9534 22.5317C10.9369 22.2338 11.0693 22.0848 11.359 22.0021C12.0296 21.82 12.5925 21.4642 13.0312 20.9346C14.2398 19.47 13.7763 17.3186 12.0627 16.367C11.5396 16.0818 10.9938 15.8573 10.4543 15.6354C10.4303 15.6255 10.4062 15.6156 10.3822 15.6057C10.0511 15.4733 9.73653 15.3161 9.46335 15.0927C8.91699 14.6541 9.02461 13.9508 9.66203 13.6694C9.84414 13.5867 10.0263 13.5619 10.2249 13.5536C10.97 13.5122 11.6736 13.6529 12.3441 13.9756C12.6753 14.1328 12.7829 14.0832 12.8988 13.7356C12.994 13.4565 13.0746 13.1726 13.1555 12.8875C13.1801 12.8006 13.2048 12.7137 13.2299 12.6268C13.2961 12.3786 13.2134 12.2131 12.9733 12.1055C12.5428 11.9152 12.1041 11.7828 11.6405 11.7083C11.0362 11.6173 11.0362 11.609 11.0362 11.005C11.0362 10.5747 11.0362 10.3596 10.9286 10.252C10.821 10.1444 10.6058 10.1444 10.1753 10.1444H9.80275C9.4054 10.1609 9.3309 10.2271 9.32262 10.6326V11.1787C9.31447 11.7084 9.31435 11.7084 8.8242 11.8901L8.8011 11.8986C7.55938 12.3455 6.78951 13.1978 6.70673 14.5548C6.63222 15.7547 7.26136 16.5739 8.24646 17.1614C8.67119 17.4138 9.12376 17.5946 9.57661 17.7756C9.77691 17.8556 9.97726 17.9356 10.1753 18.0219C10.4236 18.1295 10.6637 18.2619 10.8789 18.4357C11.4998 18.9487 11.3839 19.801 10.6471 20.1237C10.2581 20.2975 9.83587 20.3389 9.41368 20.2892C8.75143 20.2065 8.12229 20.0327 7.52626 19.7265C7.17858 19.5445 7.07097 19.5859 6.95507 19.9665Z"
				fill="#2D415E"></path>
			<path fill-rule="evenodd" clip-rule="evenodd"
				d="M31.3461 27.7711H32.5334C33.426 27.7711 34.1502 28.4958 34.167 29.389V33.3746C34.167 34.2678 33.4428 34.9925 32.5503 34.9925H31.4303C30.7314 37.2676 29.3757 39.3068 27.54 40.9415C27.5316 40.9499 27.5232 40.9562 27.5148 40.9625C27.5064 40.9689 27.4979 40.9752 27.4895 40.9836L27.3127 41.1353C25.6623 42.6267 25.5107 44.371 25.5023 44.8092V46.1237C25.5023 46.6124 25.1065 47 24.6265 47H19.2879C18.7996 47 18.4122 46.604 18.4122 46.1237V44.8681C17.7975 44.9355 17.1828 44.9693 16.5513 44.9693C15.7513 44.9693 14.9598 44.9103 14.1851 44.8092V46.1237C14.1851 46.6124 13.7893 47 13.3094 47H7.98761C7.52448 47 7.14556 46.6377 7.11188 46.1826V46.1742V46.1237V45.7276C7.06977 44.8007 6.78348 42.6604 5.10779 40.933C3.94576 39.7449 3.10371 38.2787 2.5227 37.0232C2.08483 36.1722 1.73959 35.2705 1.51223 34.3352C1.50381 34.3099 1.50381 34.2931 1.50381 34.2931C1.28488 33.3915 1.16699 32.4561 1.16699 31.4955C1.16699 29.7176 1.55434 28.0239 2.27008 26.4735C4.33311 28.0576 6.90978 29.0014 9.71382 29.0014C15.4819 29.0014 20.3237 24.9988 21.6204 19.6228C21.8057 18.856 22.2267 18.1651 22.8161 17.6511C23.675 16.9011 24.9213 16.2355 26.7317 16.0079C27.54 15.9068 28.0958 16.7916 27.6664 17.4826C27.0517 18.4684 26.5212 19.8419 26.9506 21.3502C26.9675 21.4261 26.9843 21.5103 26.9843 21.5862C29.0305 23.2377 30.563 25.3696 31.3461 27.7711ZM24.5508 26.7347C24.5508 27.4678 25.1402 28.0576 25.8728 28.0576C26.6054 28.0576 27.1948 27.4678 27.1948 26.7347C27.1948 26.0016 26.6054 25.4117 25.8728 25.4117C25.1402 25.4117 24.5508 26.0016 24.5508 26.7347Z"
				fill="#2D415E"></path>
		</symbol>
		<symbol fill="none" xmlns="http://www.w3.org/2000/svg" viewBox="0 0 67 54" id="services2">
			<rect x="13" y="26.8701" width="38" height="38" rx="5" transform="rotate(-45 13 26.8701)" fill="#FFCD00"></rect>
			<path fill-rule="evenodd" clip-rule="evenodd"
				d="M8.8898 40.5195V46.3911C8.8898 46.9334 9.54672 47.2046 9.93253 46.8187L15.5946 41.1557H23.9468C29.9113 41.1557 34.8851 36.911 36.0217 31.2792H36.3345L41.0581 36.0036C41.3813 36.3269 41.8088 36.5042 42.2468 36.4938C42.4658 36.4938 42.6847 36.4521 42.8933 36.3687C43.5293 36.1079 43.936 35.4926 43.936 34.8043V30.3614C48.4719 28.505 51.4541 24.0935 51.4541 19.1396C51.4541 12.444 46.011 7 39.3167 7H29.3482C23.561 7 18.7123 11.0778 17.5028 16.5114H12.7688C5.95972 16.5114 0.454102 22.0285 0.454102 28.8283C0.464529 34.2828 3.99939 38.8925 8.8898 40.5195ZM29.369 9.29443H39.3376C44.7702 9.29443 49.1809 13.7164 49.1809 19.1396C49.1809 23.3843 46.4698 27.1388 42.4449 28.4842L41.6628 28.7449V33.365L37.2938 28.9952H36.2615C36.2615 28.9691 36.2641 28.9431 36.2667 28.917C36.2693 28.8909 36.2719 28.8648 36.2719 28.8388C36.2719 22.0285 30.7559 16.5219 23.9573 16.5219H19.8802C21.0376 12.3606 24.8436 9.29443 29.369 9.29443ZM11.7365 23.426C11.1317 23.426 10.6312 23.9162 10.6312 24.5315C10.6312 25.1468 11.1212 25.6474 11.7365 25.637H25.5735C26.1783 25.637 26.6788 25.1468 26.6788 24.5315C26.6788 23.9266 26.1887 23.426 25.5735 23.426H11.7365ZM10.6312 28.8283C10.6312 28.213 11.1317 27.7228 11.7365 27.7228H25.5735C26.1887 27.7228 26.6788 28.2234 26.6788 28.8283C26.6788 29.4437 26.1783 29.9338 25.5735 29.9338H11.7365C11.1212 29.9443 10.6312 29.4437 10.6312 28.8283ZM19.2858 32.0197H11.7365C11.1212 32.0197 10.6312 32.5203 10.6312 33.1252C10.6312 33.7301 11.1212 34.2307 11.7365 34.2307H19.2858C19.8906 34.2307 20.3911 33.7301 20.3911 33.1252C20.3911 32.5203 19.901 32.0197 19.2858 32.0197Z"
				fill="#2D415E"></path>
		</symbol>
		<symbol fill="none" xmlns="http://www.w3.org/2000/svg" viewBox="0 0 61 54" id="services3">
			<rect x="7" y="26.8701" width="38" height="38" rx="5" transform="rotate(-45 7 26.8701)" fill="#FFCD00"></rect>
			<path
				d="M35.9656 25H31.8855H31.3397C30.1335 25 29.1553 25.8477 29.1553 26.8964V27.102C29.1553 28.1518 30.1335 29 31.3414 29H35.4256H35.9656C37.1741 29 38.1553 28.1482 38.1553 27.102L38.1529 26.8939C38.1553 25.8477 37.1741 25 35.9656 25Z"
				fill="#2D415E"></path>
			<path fill-rule="evenodd" clip-rule="evenodd"
				d="M36.0516 19.7193H35.1248V9.63492C35.1248 8.18555 33.9276 7 32.4635 7H14.906C13.4424 7 12.2453 8.1861 12.2453 9.63492V16.8701C8.70388 18.8527 5.05119 20.9238 5.04332 20.9288C3.06045 21.7369 0.155273 24.3446 0.155273 30.5022C0.155273 31.0521 0.191806 31.5597 0.242951 32.0501C0.259251 32.1937 0.277236 32.3317 0.296907 32.4703C0.348053 32.8304 0.412125 33.175 0.488562 33.5022C0.499774 33.5498 0.509962 33.5982 0.52011 33.6465C0.53489 33.7167 0.549587 33.7866 0.567248 33.8529C0.670101 34.2314 0.789253 34.5865 0.923018 34.9243C0.983197 35.0738 1.04785 35.2113 1.11338 35.3507L1.13716 35.4013C1.21584 35.5666 1.29509 35.7292 1.37996 35.8811C1.47831 36.0642 1.57667 36.2407 1.68458 36.4082C1.69773 36.428 1.71146 36.447 1.72526 36.466L1.72527 36.466C1.73859 36.4844 1.75198 36.5029 1.76495 36.5223C4.3256 40.3556 9.04954 40.3728 9.04954 40.3728H12.2453V43.3668C12.2453 44.8145 13.4424 46 14.906 46H32.4629C33.9271 46 35.1242 44.8139 35.1242 43.3668V39.7149H35.53V39.7127H36.0476C37.2116 39.7127 38.1553 38.7804 38.153 37.6277L38.1553 37.4006C38.153 36.2496 37.2116 35.3201 36.0493 35.3201H35.53H32.1246H31.5997C30.4374 35.3201 29.4988 36.2518 29.4988 37.4023V37.6333C29.4988 38.781 30.4396 39.7166 31.6013 39.7166H33.2728V41.127H14.0961V22.2078C15.0594 21.6028 15.9514 21.0206 16.46 20.6304C16.9122 20.2841 17.3604 19.9501 17.7938 19.6271C19.8303 18.1096 21.541 16.8348 21.814 15.6595C22.2451 13.8099 20.8113 12.2515 18.3243 13.5311C17.5408 13.9341 15.9328 14.8174 14.0961 15.8387V11.1756L33.2728 11.1784V19.7182H32.1246V19.7204H31.6025C30.4396 19.7204 29.4959 20.6521 29.4959 21.806V22.0319C29.4959 23.1852 30.4396 24.1147 31.5997 24.1147H32.1218H35.5272H36.0504C37.2116 24.1147 38.153 23.183 38.153 22.0319V21.7998C38.1553 20.6538 37.2144 19.7193 36.0516 19.7193ZM23.6822 42.0521C24.4196 42.0521 25.0142 42.6415 25.0142 43.3701C25.0142 44.1003 24.419 44.6876 23.6822 44.6876C22.9476 44.6876 22.3541 44.0987 22.3541 43.3701C22.3552 42.6437 22.9504 42.0521 23.6822 42.0521ZM20.876 9.53696H26.4941C26.6706 9.53696 26.8145 9.39447 26.8145 9.2197C26.8145 9.04103 26.6706 8.89966 26.4941 8.89966H20.876C20.6995 8.89966 20.5533 9.04159 20.5533 9.2197C20.5533 9.39503 20.6995 9.53696 20.876 9.53696Z"
				fill="#2D415E"></path>
			<path
				d="M35.9676 31H35.4278H31.3423C30.1363 31 29.1553 31.8502 29.1553 32.8969V33.1046C29.1553 34.1523 30.134 35 31.3423 35H31.8851H35.4254H35.9665C37.1766 35 38.1524 34.1523 38.1553 33.1046V32.8969C38.1547 31.8502 37.1789 31 35.9676 31Z"
				fill="#2D415E"></path>
		</symbol>
	</defs>
</svg>