<svg width="59" height="61" viewBox="0 0 59 61" fill="none" xmlns="http://www.w3.org/2000/svg">
<path opacity="0.806455" fill-rule="evenodd" clip-rule="evenodd" d="M0 30.5263C0 14.1352 13.1107 0.800049 29.2258 0.800049C45.3409 0.800049 58.4516 14.1352 58.4516 30.5263C58.4516 46.9173 45.3409 60.2525 29.2258 60.2525C13.1107 60.2525 0 46.9173 0 30.5263ZM22.9549 46.2078L44.3872 31.3447C44.6531 31.1604 44.8129 30.8542 44.8129 30.5263C44.8129 30.1983 44.6531 29.8921 44.3882 29.7078L22.9559 14.8447C22.6568 14.6386 22.271 14.6148 21.9515 14.7872C21.632 14.9586 21.4323 15.2955 21.4323 15.6632V45.3894C21.4323 45.757 21.632 46.0939 21.9515 46.2653C22.0937 46.3426 22.2506 46.3802 22.4065 46.3802C22.5984 46.3802 22.7903 46.3218 22.9549 46.2078Z" fill="white"/>
</svg>
